<?xml version="1.0" encoding="UTF-8"?>
<svg id="Layer_2" data-name="Layer 2" xmlns="http://www.w3.org/2000/svg" viewBox="0 0 287.55 28.34">
  <defs>
    <style>
      .cls-1 {
        fill: #f05323;
      }

      .cls-1, .cls-2 {
        stroke-width: 0px;
      }

      .cls-2 {
        fill: #1b2433;
      }
    </style>
  </defs>
  <g id="color">
    <g>
      <path class="cls-2" d="M12.13,5.63l-1.88-5.63h15.96c2.33,0,4.32.83,5.97,2.48,1.65,1.65,2.48,3.64,2.48,5.97s-.83,4.32-2.48,5.97c-1.65,1.65-3.64,2.48-5.97,2.48h-.08l9.79,11.27h-7.48l-9.79-11.27h-2.78v11.27h-5.63V11.27h15.96c.78,0,1.44-.28,1.99-.83s.83-1.21.83-1.99-.28-1.44-.83-1.99c-.55-.55-1.21-.83-1.99-.83h-14.09Z"/>
      <rect class="cls-2" y="18.66" width="3.17" height="9.51"/>
      <rect class="cls-2" x="4.36" y="15.5" width="4.22" height="12.68"/>
      <path class="cls-2" d="M37.39,19.72V0h5.63v19.72c0,.78.28,1.44.83,1.99.55.55,1.21.83,1.99.83h7.51c.78,0,1.44-.28,1.99-.83.55-.55.83-1.21.83-1.99V0h5.63v19.72c0,2.33-.83,4.32-2.48,5.97-1.65,1.65-3.64,2.48-5.97,2.48h-7.51c-2.33,0-4.32-.83-5.97-2.48-1.65-1.65-2.48-3.64-2.48-5.97Z"/>
      <path class="cls-2" d="M89.62,0l-1.88,5.63h-14.09c-.78,0-1.44.28-1.99.83-.55.55-.83,1.21-.83,1.99v11.27c0,.78.28,1.44.83,1.99.55.55,1.21.83,1.99.83h10.33v-11.27h5.63v16.9h-15.96c-2.33,0-4.32-.83-5.97-2.48-1.65-1.65-2.48-3.64-2.48-5.97v-11.27c0-2.33.83-4.32,2.48-5.97C69.34.83,71.33,0,73.66,0h15.96Z"/>
      <path class="cls-2" d="M117.57,0l-1.88,5.63h-14.09c-.78,0-1.44.28-1.99.83-.55.55-.83,1.21-.83,1.99v11.27c0,.78.28,1.44.83,1.99.55.55,1.21.83,1.99.83h10.33v-11.27h5.63v16.9h-15.96c-2.33,0-4.32-.83-5.97-2.48-1.65-1.65-2.48-3.64-2.48-5.97v-11.27c0-2.33.83-4.32,2.48-5.97C97.28.83,99.28,0,101.6,0h15.96Z"/>
      <path class="cls-2" d="M144.42,5.8h-22.54V.17h24.42l-1.88,5.63ZM127.51,22.71h18.78v5.63h-24.42V11.44h24.42v5.63h-18.78v5.63Z"/>
      <path class="cls-2" d="M150.05,11.44h5.63v11.27h10.33c.78,0,1.44-.28,1.99-.83.55-.55.83-1.21.83-1.99v-11.27c0-.78-.28-1.44-.83-1.99-.55-.55-1.21-.83-1.99-.83h-14.09l-1.88-5.63h15.96c2.33,0,4.32.83,5.97,2.48,1.65,1.65,2.48,3.64,2.48,5.97v11.27c0,2.33-.83,4.32-2.48,5.97-1.65,1.65-3.64,2.48-5.97,2.48h-15.96V11.44Z"/>
      <path class="cls-1" d="M201.59,5.63h-22.54V0h24.42l-1.88,5.63ZM184.69,22.54h18.78v5.63h-24.42V11.27h24.42v5.63h-18.78v5.63Z"/>
      <path class="cls-1" d="M206.85,11.27h5.63v11.27h10.33c.78,0,1.44-.28,1.99-.83.55-.55.83-1.21.83-1.99v-11.27c0-.78-.28-1.44-.83-1.99-.55-.55-1.21-.83-1.99-.83h-14.09L206.85,0h15.96c2.33,0,4.32.83,5.97,2.48,1.65,1.65,2.48,3.64,2.48,5.97v11.27c0,2.33-.83,4.32-2.48,5.97-1.65,1.65-3.64,2.48-5.97,2.48h-15.96V11.27Z"/>
      <path class="cls-1" d="M259.11,0l-1.88,5.63h-14.09c-.78,0-1.44.28-1.99.83-.55.55-.83,1.21-.83,1.99v11.27c0,.78.28,1.44.83,1.99.55.55,1.21.83,1.99.83h10.33v-11.27h5.63v16.9h-15.96c-2.33,0-4.32-.83-5.97-2.48-1.65-1.65-2.48-3.64-2.48-5.97v-11.27c0-2.33.83-4.32,2.48-5.97C238.83.83,240.82,0,243.15,0h15.96Z"/>
      <path class="cls-1" d="M285.68,5.63h-22.54V0h24.42l-1.88,5.63ZM268.77,22.54h18.78v5.63h-24.42V11.27h24.42v5.63h-18.78v5.63Z"/>
    </g>
  </g>
</svg>